<?xml version="1.0" standalone="no"?>
<!DOCTYPE svg PUBLIC "-//W3C//DTD SVG 20010904//EN"
 "http://www.w3.org/TR/2001/REC-SVG-20010904/DTD/svg10.dtd">
<svg version="1.0" xmlns="http://www.w3.org/2000/svg"
 width="161.000000pt" height="161.000000pt" viewBox="0 0 161.000000 161.000000"
 preserveAspectRatio="xMidYMid meet">
<metadata>
Created by potrace 1.14, written by Peter Selinger 2001-2017
</metadata>
<g transform="translate(0.000000,161.000000) scale(0.100000,-0.100000)"
fill="#000000" stroke="none">
<path d="M210 1195 c0 -26 -8 -34 -49 -57 -143 -79 -166 -270 -45 -376 154
-136 388 -30 386 175 -1 92 -52 170 -139 211 -25 12 -33 22 -33 43 0 26 -2 27
-60 31 l-60 3 0 -30z m11 -246 c5 -1 18 -1 29 -1 82 0 80 -1 80 45 l1 42 24
-28 c14 -15 26 -36 26 -45 1 -9 2 -24 3 -32 2 -24 -22 -67 -51 -90 -22 -17
-37 -21 -71 -17 -96 11 -138 119 -75 190 18 19 18 18 21 -22 2 -22 7 -41 13
-42z"/>
<path d="M591 1109 l-42 -42 66 -64 c36 -36 65 -68 65 -72 0 -3 -29 -36 -65
-71 l-65 -64 42 -43 42 -43 68 67 67 67 27 -25 c15 -13 46 -44 69 -67 l42 -44
43 41 44 41 -69 70 -69 70 69 70 70 70 -43 42 -42 43 -70 -70 -70 -69 -68 67
-69 68 -42 -42z"/>
<path d="M1128 938 c-75 -112 -133 -205 -128 -208 9 -6 528 -5 534 1 3 3 -250
388 -266 404 -2 3 -66 -86 -140 -197z m186 -87 c-4 -5 -85 -3 -91 2 -2 3 6 21
18 40 l23 34 27 -36 c14 -20 25 -38 23 -40z"/>
<path d="M74 630 c-55 -22 -73 -109 -31 -148 30 -28 77 -37 121 -22 33 11 36
15 36 51 0 38 -2 40 -27 37 -20 -2 -28 -9 -28 -23 0 -26 -35 -32 -52 -9 -30
41 5 87 51 66 16 -7 27 -6 39 3 25 18 21 32 -14 44 -37 13 -66 13 -95 1z"/>
<path d="M280 630 c0 -7 -16 -48 -35 -91 -19 -44 -35 -82 -35 -84 0 -13 61 -3
66 10 8 21 84 21 84 0 0 -10 11 -15 35 -15 33 0 43 8 28 24 -4 3 -21 41 -39
84 -31 74 -33 77 -68 80 -22 2 -36 -1 -36 -8z m48 -101 c-17 -10 -28 -2 -21
17 4 11 8 12 20 3 11 -10 11 -14 1 -20z"/>
<path d="M440 545 l0 -95 31 0 c29 0 31 2 27 30 -6 39 5 46 22 15 17 -32 44
-32 59 1 14 31 25 25 26 -14 0 -22 5 -28 28 -30 l27 -3 0 95 c0 95 0 96 -25
96 -15 0 -30 -9 -40 -25 -48 -79 -48 -80 -53 -65 -3 8 -16 32 -29 53 -17 26
-30 37 -48 37 -25 0 -25 0 -25 -95z"/>
<path d="M690 545 l0 -95 73 0 c41 0 76 3 79 6 3 3 4 14 1 25 -5 16 -13 19
-49 16 -31 -2 -44 1 -44 10 0 9 14 13 41 13 36 0 40 2 37 22 -2 18 -9 23 -37
23 -39 0 -56 24 -19 26 59 3 63 5 66 27 3 21 0 22 -72 22 l-76 0 0 -95z"/>
<path d="M870 545 l0 -95 29 0 c28 0 30 3 33 43 l3 42 30 -42 c23 -32 37 -43
58 -43 l27 0 0 95 0 95 -30 0 c-28 0 -30 -2 -30 -41 l0 -42 -36 42 c-24 26
-45 41 -60 41 -24 0 -24 -2 -24 -95z"/>
<path d="M1080 545 l0 -95 74 0 c53 0 75 4 79 13 7 18 -7 39 -24 37 -8 -1 -26
-2 -41 -1 -43 2 -33 21 11 21 34 0 39 3 39 23 0 21 -5 23 -39 22 -27 -1 -39 3
-39 12 0 7 6 13 13 14 6 0 26 2 42 2 23 2 31 7 33 25 3 21 0 22 -72 22 l-76 0
0 -95z"/>
<path d="M1250 634 c0 -3 11 -22 25 -42 14 -20 25 -41 25 -47 0 -6 -14 -30
-31 -53 l-31 -42 36 0 c25 0 39 6 51 23 l16 22 18 -23 c13 -18 25 -23 49 -20
l32 3 -31 48 -31 47 23 35 c24 35 41 46 37 23 -2 -7 9 -14 24 -16 26 -3 26 -5
25 -70 l-1 -67 31 -3 32 -3 3 73 c3 65 5 73 22 70 21 -4 37 14 29 35 -4 10
-33 13 -119 13 -103 0 -114 -2 -124 -20 -6 -11 -15 -20 -20 -20 -5 0 -12 9
-15 20 -5 15 -15 20 -41 20 -19 0 -34 -2 -34 -6z"/>
</g>
</svg>
